<?xml version="1.0" encoding="UTF-8" standalone="no"?>
<svg
   xmlns:dc="http://purl.org/dc/elements/1.1/"
   xmlns:cc="http://creativecommons.org/ns#"
   xmlns:rdf="http://www.w3.org/1999/02/22-rdf-syntax-ns#"
   xmlns:svg="http://www.w3.org/2000/svg"
   xmlns="http://www.w3.org/2000/svg"
   viewBox="0 0 151.18134 151.18134"
   height="151.18134"
   width="151.18134"
   xml:space="preserve"
   id="svg2"
   version="1.1"><metadata
     id="metadata8"><rdf:RDF><cc:Work
         rdf:about=""><dc:format>image/svg+xml</dc:format><dc:type
           rdf:resource="http://purl.org/dc/dcmitype/StillImage" /></cc:Work></rdf:RDF></metadata><defs
     id="defs6"><clipPath
       id="clipPath20"
       clipPathUnits="userSpaceOnUse"><path
         id="path18"
         d="M 0,113.386 H 113.386 V 0 H 0 Z" /></clipPath></defs><g
     transform="matrix(1.3333333,0,0,-1.3333333,0,151.18133)"
     id="g10"><path
       id="path12"
       style="fill:#e60c80;fill-opacity:1;fill-rule:nonzero;stroke:none"
       d="M 0,0 H 113.386 V 113.386 H 0 Z" /><g
       id="g14"><g
         clip-path="url(#clipPath20)"
         id="g16"><g
           transform="translate(85.905,62.5708)"
           id="g22"><path
             id="path24"
             style="fill:#ffffff;fill-opacity:1;fill-rule:nonzero;stroke:none"
             d="M 0,0 C -1.348,1.312 -1.985,2.965 -2.219,4.804 -2.443,2.988 -3.074,1.358 -4.384,0.046 c -1.311,-1.312 -2.92,-1.98 -4.761,-2.147 1.864,-0.139 3.471,-0.848 4.784,-2.171 0.926,-0.934 1.535,-2.017 1.866,-3.226 -2.684,-19.136 -24.469,-30.998 -41.409,-20.736 -10.512,6.08 -15.508,19.585 -11.501,31.019 6.214,19.274 31.54,24.412 46.018,10.538 -21.556,28.015 -63.889,2.261 -51.761,-30.299 12.067,-31.097 57.591,-24.205 58.921,7.975 0.002,-0.022 0.008,-0.042 0.009,-0.064 0.134,1.894 0.85,3.519 2.2,4.849 1.35,1.331 2.99,2.014 4.886,2.107 C 3.017,-1.911 1.348,-1.314 0,0" /></g></g></g></g></svg>