<?xml version="1.0" encoding="UTF-8" ?>
<!DOCTYPE svg PUBLIC "-//W3C//DTD SVG 1.1//EN" "http://www.w3.org/Graphics/SVG/1.1/DTD/svg11.dtd">
<svg width="708pt" height="262pt" viewBox="0 0 708 262" version="1.1" xmlns="http://www.w3.org/2000/svg">
<g id="#fefefeff">
</g>
<g id="#000000ff">
<path fill="#000000" opacity="1.00" d=" M 121.54 47.65 C 129.61 46.94 137.76 47.17 145.84 47.73 C 165.52 50.33 184.62 58.32 199.70 71.31 C 202.22 73.73 204.98 76.40 205.55 80.01 C 205.51 83.12 203.82 85.83 202.01 88.22 C 197.93 85.62 194.62 82.08 191.06 78.86 C 179.73 68.31 165.38 60.94 150.04 58.58 C 139.22 57.41 128.26 58.01 117.53 59.68 C 108.03 62.27 98.91 66.32 90.59 71.58 C 77.54 81.12 66.05 93.42 59.70 108.46 C 51.10 127.31 51.15 149.14 56.43 168.90 C 61.90 188.90 76.15 205.53 93.20 216.82 C 101.32 222.46 110.86 225.34 120.15 228.37 C 128.41 228.68 136.70 228.43 144.98 228.48 C 156.16 228.58 166.67 224.17 176.63 219.53 C 186.53 214.74 194.78 207.21 202.30 199.30 C 208.59 192.83 212.74 184.66 216.34 176.47 C 219.51 169.47 220.80 161.57 219.73 153.94 C 218.89 148.02 214.30 143.53 209.59 140.29 C 206.95 138.42 203.42 138.33 201.05 136.02 C 210.16 132.92 219.95 126.58 221.02 116.13 C 224.38 120.16 226.17 125.29 229.91 129.04 C 233.44 132.41 237.90 135.13 242.91 135.33 C 242.37 136.61 241.42 137.68 239.99 137.91 C 234.27 139.80 228.48 143.36 226.07 149.15 C 222.39 157.64 222.30 167.09 219.67 175.88 C 211.67 204.95 187.39 228.57 158.44 236.61 C 146.26 241.69 132.90 240.74 120.04 240.03 C 109.12 240.57 98.68 236.47 88.84 232.19 C 71.79 223.66 56.48 210.85 46.86 194.23 C 40.60 183.93 36.99 172.25 34.71 160.48 C 33.58 152.03 34.42 143.49 34.40 135.00 C 34.36 120.73 40.56 107.44 47.24 95.16 C 59.07 75.63 78.22 61.08 99.56 53.33 C 106.77 51.04 114.09 48.99 121.54 47.65 Z" />
<path fill="#000000" opacity="1.00" d=" M 423.46 103.30 C 426.33 101.15 428.64 98.12 432.02 96.74 C 434.03 95.84 436.37 97.92 436.28 99.96 C 435.29 102.08 432.95 103.00 431.09 104.17 C 426.37 106.58 421.58 108.96 416.46 110.39 C 417.71 107.15 421.02 105.53 423.46 103.30 Z" />
<path fill="#000000" opacity="1.00" d=" M 308.76 114.80 C 315.99 113.11 323.63 115.47 329.43 119.88 C 332.07 122.04 332.54 116.74 333.57 115.30 C 334.36 116.36 334.84 117.56 334.74 118.90 C 334.82 124.19 335.16 129.52 334.44 134.78 C 334.16 134.82 333.61 134.88 333.34 134.92 C 330.76 130.05 330.43 123.85 325.92 120.11 C 321.17 116.43 314.59 116.38 308.90 117.11 C 301.60 120.11 297.88 128.18 296.74 135.59 C 295.58 143.93 295.67 152.65 298.10 160.77 C 300.01 167.17 305.09 173.10 311.94 174.13 C 318.26 174.59 325.78 173.19 329.14 167.17 C 331.85 163.48 331.27 158.63 333.09 154.64 C 334.99 153.68 334.22 156.98 334.65 157.95 C 334.89 162.63 334.96 167.33 334.75 172.01 C 334.83 173.36 334.30 174.56 333.50 175.61 C 332.82 173.89 332.18 172.17 331.42 170.49 C 326.46 172.04 322.36 176.00 316.98 176.17 C 309.85 176.53 301.99 175.57 296.51 170.55 C 289.30 163.84 286.45 153.52 287.06 143.91 C 287.59 135.93 290.14 127.68 295.91 121.92 C 299.31 118.25 304.08 116.27 308.76 114.80 Z" />
<path fill="#000000" opacity="1.00" d=" M 399.41 169.11 C 407.51 151.31 413.17 132.46 421.66 114.84 C 429.50 132.24 435.63 150.35 443.17 167.87 C 444.19 170.75 446.77 172.45 448.84 174.51 C 441.99 175.88 434.99 174.95 428.11 174.41 C 430.10 173.34 432.21 172.55 434.34 171.77 C 433.91 165.24 430.70 159.36 428.65 153.25 C 421.85 153.25 415.05 153.25 408.25 153.25 C 406.58 158.45 403.89 163.50 403.54 169.01 C 403.99 173.06 408.48 172.80 411.36 173.98 C 405.74 176.03 399.63 174.93 393.82 174.55 C 395.71 172.77 398.11 171.43 399.41 169.11 M 418.61 126.94 C 415.35 134.82 412.36 142.80 409.30 150.75 C 415.44 150.75 421.58 150.74 427.73 150.75 C 424.66 142.83 422.01 134.73 418.61 126.94 Z" />
<path fill="#000000" opacity="1.00" d=" M 598.26 122.29 C 604.94 114.61 616.59 112.53 625.84 116.37 C 628.66 117.50 630.98 119.62 633.94 120.45 C 634.75 118.51 635.16 116.08 637.49 115.37 C 637.39 122.07 638.09 129.17 635.70 135.54 C 634.05 131.62 633.78 127.16 631.39 123.56 C 625.52 115.34 611.48 113.73 604.88 121.91 C 599.30 128.92 598.77 138.40 598.60 146.99 C 598.45 155.55 600.41 165.02 607.41 170.67 C 612.07 175.10 619.19 174.85 624.86 172.75 C 628.56 171.55 631.54 168.53 632.82 164.87 C 634.35 161.35 634.22 157.22 636.53 154.04 C 637.30 161.14 637.63 168.32 637.63 175.46 C 635.17 174.77 634.71 172.22 633.85 170.20 C 628.95 172.35 624.58 176.32 618.95 176.25 C 613.03 176.60 606.70 176.06 601.88 172.25 C 595.95 168.57 591.78 162.37 590.75 155.46 C 588.42 144.09 589.63 130.85 598.26 122.29 Z" />
<path fill="#000000" opacity="1.00" d=" M 342.29 116.34 C 349.66 115.41 357.25 115.39 364.62 116.35 C 363.20 118.70 359.23 117.19 358.42 119.97 C 357.33 125.55 357.83 131.29 357.73 136.95 C 358.02 145.35 357.79 153.76 358.28 162.15 C 358.33 166.05 360.81 169.74 364.12 171.65 C 368.89 173.26 374.61 173.71 379.06 170.96 C 382.57 168.35 385.01 164.26 385.37 159.86 C 386.40 149.29 385.96 138.65 386.18 128.04 C 386.10 125.63 386.34 123.11 385.48 120.81 C 384.00 117.97 380.27 118.37 378.16 116.28 C 384.01 115.46 390.01 115.48 395.86 116.26 C 393.67 118.30 389.22 118.08 389.18 121.94 C 387.72 135.74 388.92 149.70 387.27 163.49 C 386.27 169.05 381.61 173.33 376.53 175.35 C 371.50 176.93 365.88 176.74 360.93 174.94 C 354.87 172.96 350.61 167.00 349.78 160.82 C 348.88 147.39 349.79 133.83 348.30 120.44 C 347.97 117.24 343.73 118.69 342.29 116.34 Z" />
<path fill="#000000" opacity="1.00" d=" M 449.43 116.22 C 454.39 115.36 459.44 115.91 464.44 115.71 C 474.00 130.72 483.80 145.57 493.47 160.52 C 493.38 147.67 493.66 134.80 493.06 121.96 C 492.87 117.81 487.59 118.68 485.31 116.31 C 491.15 115.44 497.17 115.47 503.02 116.28 C 500.85 118.25 496.45 118.07 496.39 121.82 C 494.86 139.89 496.66 158.11 494.78 176.16 C 481.81 158.95 471.16 140.12 458.93 122.39 C 457.93 138.35 458.96 154.37 458.79 170.35 C 460.91 172.54 464.54 172.28 466.50 174.27 C 461.80 175.73 456.76 174.98 451.94 174.72 C 450.95 174.76 450.15 174.41 449.52 173.66 C 451.89 172.81 455.68 172.47 455.79 169.18 C 456.72 157.80 456.17 146.36 456.22 134.96 C 456.11 130.00 456.41 124.98 455.44 120.10 C 454.88 117.09 450.65 118.80 449.43 116.22 Z" />
<path fill="#000000" opacity="1.00" d=" M 507.89 115.75 C 523.56 115.74 539.24 115.75 554.91 115.75 C 554.61 121.98 555.69 128.40 553.93 134.47 C 551.25 130.82 552.28 125.77 549.99 121.93 C 546.42 117.84 540.57 117.77 535.57 117.99 C 535.92 135.84 535.34 153.73 536.57 171.56 C 539.24 172.50 542.13 172.93 544.57 174.49 C 540.75 175.25 536.84 174.89 532.99 175.15 C 528.16 175.26 523.22 175.70 518.53 174.25 C 520.80 172.90 523.45 172.51 525.92 171.64 C 526.70 168.49 526.96 165.25 526.98 162.02 C 527.11 147.34 527.04 132.65 527.06 117.97 C 522.39 118.04 516.82 117.63 513.41 121.47 C 510.93 125.15 511.60 130.02 509.25 133.77 C 507.84 127.88 508.24 121.76 507.89 115.75 Z" />
<path fill="#000000" opacity="1.00" d=" M 560.32 116.35 C 567.79 115.37 575.46 115.49 582.94 116.28 C 581.35 118.17 578.33 117.86 576.75 119.55 C 575.90 124.65 576.16 129.88 575.96 135.04 C 575.99 147.11 575.43 159.25 576.65 171.27 C 578.66 172.61 581.02 173.29 583.14 174.44 C 575.60 175.81 567.93 174.65 560.34 174.80 C 562.29 172.36 567.46 173.07 567.01 169.05 C 567.80 157.04 567.48 145.00 567.58 132.97 C 567.51 128.97 567.68 124.92 566.94 120.97 C 566.69 117.49 562.29 118.34 560.32 116.35 Z" />
<path fill="#000000" opacity="1.00" d=" M 663.10 128.91 C 665.10 124.17 666.60 119.20 669.04 114.65 C 677.46 132.22 683.31 150.91 691.51 168.59 C 692.49 171.12 694.67 172.76 696.69 174.45 C 689.78 175.39 682.69 175.58 675.83 174.23 C 677.49 173.45 679.24 172.85 681.03 172.38 C 682.05 170.76 682.35 168.83 681.55 167.04 C 679.74 162.37 677.92 157.71 676.23 153.00 C 669.49 152.95 662.75 153.04 656.01 153.25 C 654.30 158.43 651.57 163.46 651.42 169.00 C 651.65 172.86 656.36 172.70 658.87 174.46 C 653.23 175.68 647.44 174.83 641.75 174.58 C 644.10 172.29 647.18 170.42 648.25 167.14 C 653.15 154.38 658.27 141.70 663.10 128.91 M 657.08 150.75 C 663.21 150.75 669.35 150.75 675.48 150.75 C 672.52 142.83 669.61 134.87 666.32 127.08 C 662.83 134.80 660.32 142.92 657.08 150.75 Z" />
<path fill="#000000" opacity="1.00" d=" M 641.19 187.72 C 643.67 185.96 646.37 184.51 649.29 183.59 C 650.43 196.34 650.00 209.17 650.27 221.96 C 651.92 221.99 653.57 222.04 655.24 222.11 C 652.90 223.65 650.36 224.84 647.74 225.80 C 647.08 224.62 646.46 223.44 645.88 222.23 C 642.22 224.87 637.29 227.40 632.83 225.10 C 626.40 221.03 626.21 210.68 631.83 205.82 C 635.72 202.48 641.34 201.39 646.15 203.27 C 646.35 198.52 646.59 193.72 645.86 189.01 C 645.42 186.60 642.83 187.83 641.19 187.72 M 637.20 204.14 C 633.35 205.14 631.90 209.41 632.11 213.00 C 631.92 217.10 633.45 222.40 638.04 223.36 C 641.69 223.68 646.83 221.28 646.32 216.94 C 646.32 213.72 646.63 210.39 645.76 207.26 C 644.01 204.54 640.31 202.97 637.20 204.14 Z" />
<path fill="#000000" opacity="1.00" d=" M 557.12 192.17 C 561.14 188.17 567.76 187.96 572.70 190.27 C 574.15 192.62 573.53 195.81 574.05 198.49 C 572.13 195.93 571.04 192.58 568.13 190.93 C 565.28 189.08 560.69 190.07 559.47 193.41 C 558.40 195.74 558.77 198.57 560.42 200.53 C 564.03 205.12 570.38 206.50 573.76 211.34 C 576.58 215.07 575.29 220.95 571.51 223.53 C 567.13 226.59 561.14 226.54 556.39 224.45 C 553.33 221.94 554.50 217.46 554.20 214.02 C 555.86 217.15 557.09 220.75 559.93 223.06 C 562.82 224.63 567.32 225.57 569.73 222.69 C 572.03 220.42 571.42 216.75 570.10 214.14 C 567.04 209.05 560.79 207.41 556.97 203.08 C 554.48 200.02 554.14 195.03 557.12 192.17 Z" />
<path fill="#000000" opacity="1.00" d=" M 661.87 196.36 C 659.56 194.62 660.41 189.72 663.83 191.27 C 666.90 192.85 664.78 196.45 661.87 196.36 Z" />
<path fill="#000000" opacity="1.00" d=" M 580.48 204.51 C 583.24 203.59 585.08 201.42 586.71 199.14 C 586.91 200.58 587.12 202.03 587.34 203.47 C 590.18 203.48 593.06 203.37 595.88 203.97 C 593.68 206.66 589.97 204.81 587.03 205.21 C 587.36 210.74 586.77 216.41 587.91 221.85 C 590.12 224.74 593.61 223.21 596.45 222.46 C 593.42 225.93 587.61 227.08 583.98 223.93 C 582.94 218.06 583.93 212.04 583.10 206.14 C 582.22 205.60 581.35 205.05 580.48 204.51 Z" />
<path fill="#000000" opacity="1.00" d=" M 680.61 202.89 C 687.55 199.85 695.52 205.65 695.77 212.93 C 696.77 220.06 690.01 227.02 682.81 225.62 C 674.79 225.55 670.65 215.45 673.86 208.87 C 675.29 206.12 677.89 204.24 680.61 202.89 M 679.29 205.12 C 675.99 207.73 677.18 212.50 677.36 216.11 C 677.66 220.01 680.61 222.98 683.96 224.63 C 686.47 224.00 690.00 223.89 690.89 220.88 C 692.35 215.72 691.94 209.13 687.55 205.45 C 685.30 203.47 681.61 203.03 679.29 205.12 Z" />
<path fill="#000000" opacity="1.00" d=" M 597.20 206.64 C 599.42 204.52 602.31 203.39 605.19 202.45 C 605.84 207.96 605.37 213.52 605.91 219.03 C 605.99 220.82 607.12 222.75 609.05 222.99 C 612.02 223.14 614.65 221.60 617.07 220.06 C 616.74 215.48 617.83 210.52 615.95 206.21 C 615.14 206.07 613.53 205.77 612.72 205.62 C 615.12 204.34 617.58 203.16 620.23 202.45 C 620.81 208.94 620.83 215.45 621.00 221.96 C 622.67 221.99 624.35 222.05 626.03 222.14 C 623.66 223.95 620.89 225.46 617.84 225.60 C 617.56 224.72 617.00 222.97 616.71 222.09 C 613.87 223.59 611.12 225.61 607.83 225.96 C 605.16 225.89 602.48 223.82 602.23 221.08 C 601.84 216.02 602.28 210.88 601.08 205.91 C 599.78 206.16 598.49 206.42 597.20 206.64 Z" />
<path fill="#000000" opacity="1.00" d=" M 656.75 206.23 C 659.38 204.83 662.11 203.65 664.89 202.58 C 665.22 209.24 664.58 215.96 665.39 222.59 C 666.36 223.54 667.55 224.23 668.67 225.03 C 665.20 224.98 661.73 225.03 658.27 224.98 C 659.29 224.43 660.33 223.88 661.38 223.35 C 661.37 217.82 661.37 212.29 661.37 206.77 C 659.82 206.59 658.28 206.41 656.75 206.23 Z" />
</g>
</svg>
