<?xml version="1.0" encoding="UTF-8" ?>
<!DOCTYPE svg PUBLIC "-//W3C//DTD SVG 1.1//EN" "http://www.w3.org/Graphics/SVG/1.1/DTD/svg11.dtd">
<svg width="339pt" height="268pt" viewBox="0 0 339 268" version="1.1" xmlns="http://www.w3.org/2000/svg">
<g id="#fefefeff">
</g>
<g id="#000000ff">
<path fill="#000000" opacity="1.00" d=" M 118.96 26.97 C 137.11 20.42 156.85 20.04 175.82 22.38 C 184.57 24.50 193.52 26.24 201.70 30.14 C 207.58 32.87 213.50 35.62 218.92 39.20 C 225.26 44.03 231.92 48.65 237.11 54.77 C 239.01 59.98 236.97 66.02 232.78 69.52 C 232.15 69.60 230.89 69.77 230.26 69.86 C 224.27 65.17 219.77 58.80 213.60 54.30 C 202.73 44.96 188.98 39.55 175.01 36.98 C 164.83 35.55 154.50 35.92 144.29 36.78 C 139.93 37.08 135.79 38.44 131.68 39.82 C 123.93 41.66 117.03 45.86 110.28 49.94 C 101.06 55.11 93.62 62.86 86.80 70.82 C 82.56 76.14 78.59 81.76 76.03 88.10 C 70.10 99.77 66.53 112.82 66.80 125.97 C 66.98 138.35 66.93 151.27 72.16 162.76 C 75.86 174.22 82.51 184.65 90.78 193.38 C 97.37 201.12 105.17 207.88 114.01 212.92 C 121.45 217.51 129.87 220.16 138.16 222.77 C 148.97 224.82 160.07 224.83 171.00 223.91 C 179.28 223.28 187.11 220.32 194.94 217.79 C 199.47 215.85 203.76 213.40 208.05 211.01 C 220.49 204.35 230.30 193.75 238.49 182.44 C 245.94 171.46 251.63 158.43 250.57 144.89 C 250.54 138.33 247.00 131.78 241.22 128.57 C 237.90 126.43 234.03 125.51 230.45 123.93 C 230.25 123.14 229.85 121.55 229.65 120.75 C 232.99 118.69 237.03 118.23 240.43 116.28 C 243.27 114.64 246.04 112.69 247.94 109.97 C 251.16 105.93 250.59 100.24 253.76 96.16 C 256.50 97.98 257.43 101.21 258.59 104.10 C 259.82 107.91 261.99 111.44 264.92 114.17 C 269.27 116.84 273.89 119.45 279.05 120.07 C 279.47 120.55 280.32 121.52 280.74 122.01 C 279.94 123.04 279.26 124.35 277.83 124.55 C 272.32 126.12 266.67 128.44 263.08 133.12 C 258.24 139.50 257.29 147.78 256.19 155.47 C 255.95 159.91 254.15 164.03 253.55 168.41 C 247.83 185.27 238.23 201.00 225.12 213.15 C 209.74 227.07 190.10 235.65 169.83 239.45 C 159.67 241.08 149.31 240.72 139.07 240.29 C 128.82 240.21 119.10 236.57 109.57 233.17 C 94.90 228.08 82.82 217.80 71.92 207.05 C 67.70 203.11 64.09 198.63 60.65 194.02 C 55.70 185.61 50.63 177.14 47.60 167.81 C 45.27 158.67 42.25 149.53 42.18 140.00 C 42.04 131.38 42.06 122.73 43.09 114.16 C 45.63 99.36 51.35 85.16 59.53 72.58 C 64.96 64.20 72.08 57.10 79.16 50.12 C 90.64 39.78 104.23 31.70 118.96 26.97 Z" />
</g>
</svg>
