<?xml version="1.0" encoding="UTF-8" ?>
<!DOCTYPE svg PUBLIC "-//W3C//DTD SVG 1.1//EN" "http://www.w3.org/Graphics/SVG/1.1/DTD/svg11.dtd">
<svg width="1182pt" height="473pt" viewBox="0 0 1182 473" version="1.1" xmlns="http://www.w3.org/2000/svg">
<g id="#fefefeff">
</g>
<g id="#020202ff">
<path fill="#020202" opacity="1.00" d=" M 245.48 109.63 C 278.36 100.82 314.90 107.63 342.71 127.18 C 352.69 133.69 360.53 142.81 369.01 151.05 C 368.76 151.53 368.26 152.47 368.01 152.95 C 356.53 143.06 343.19 135.41 328.91 130.38 C 317.22 125.70 304.46 124.56 291.97 124.71 C 264.31 122.95 236.40 132.57 215.07 150.14 C 202.11 160.06 191.94 173.43 185.23 188.27 C 179.87 199.78 176.38 212.29 175.97 225.02 C 174.89 242.36 176.48 260.31 183.79 276.27 C 189.16 288.97 196.27 301.11 206.02 310.96 C 221.94 327.56 243.10 339.48 265.97 342.89 C 274.91 344.01 283.94 344.43 292.95 344.20 C 322.13 342.06 349.87 327.99 370.00 306.95 C 384.86 290.05 396.77 269.64 399.90 247.07 C 401.28 240.08 396.77 233.65 392.04 228.99 C 387.56 224.21 381.07 222.34 374.90 220.90 C 377.26 219.46 379.80 218.31 382.50 217.64 C 388.73 216.07 393.64 211.32 396.82 205.90 C 399.14 201.93 400.22 197.37 402.62 193.44 C 404.38 199.21 405.98 205.30 410.14 209.89 C 415.00 215.59 422.51 217.51 428.89 220.92 C 423.61 222.63 418.04 224.10 413.69 227.73 C 410.24 230.71 407.04 234.19 405.34 238.49 C 403.00 243.65 402.53 249.36 402.13 254.93 C 400.07 282.64 388.29 309.71 368.73 329.54 C 357.24 341.85 342.25 350.23 326.92 356.81 C 313.62 362.31 299.46 365.98 285.04 366.66 C 266.24 368.23 247.53 363.99 229.79 358.13 C 212.87 351.60 198.07 340.50 185.02 328.07 C 173.74 318.23 165.60 305.32 159.22 291.90 C 152.97 278.07 148.80 263.18 147.87 247.99 C 146.95 227.83 148.62 207.15 156.22 188.29 C 160.74 177.96 165.73 167.71 172.77 158.84 C 182.87 145.27 196.05 134.25 210.36 125.35 C 221.41 118.80 233.03 113.00 245.48 109.63 Z" />
<path fill="#020202" opacity="1.00" d=" M 953.07 313.02 C 956.33 310.80 959.81 308.49 963.97 308.88 C 964.26 318.21 964.30 327.55 964.64 336.89 C 964.45 339.15 966.39 340.56 967.79 342.02 C 962.95 341.99 958.12 342.00 953.29 342.01 C 955.06 340.42 957.67 339.00 957.43 336.23 C 957.36 329.15 957.17 322.08 957.00 315.01 C 955.68 314.34 954.37 313.68 953.07 313.02 Z" />
</g>
<g id="#080806ff">
<path fill="#080806" opacity="1.00" d=" M 644.61 178.43 C 647.14 175.65 651.14 176.48 654.10 178.03 C 656.44 181.90 653.37 185.97 650.24 188.20 C 645.43 191.56 640.19 194.23 635.04 197.02 C 634.49 196.74 633.38 196.20 632.83 195.92 C 635.63 189.40 640.40 184.05 644.61 178.43 Z" />
</g>
<g id="#060606ff">
<path fill="#060606" opacity="1.00" d=" M 479.19 202.18 C 491.97 194.93 508.30 195.98 520.94 203.03 C 520.96 201.69 520.99 200.35 521.02 199.01 C 522.34 198.64 523.67 198.30 525.01 197.93 C 524.99 205.28 524.99 212.64 525.01 220.00 C 524.25 220.00 522.75 220.00 521.99 220.01 C 518.98 212.41 513.83 205.04 505.91 202.07 C 499.62 201.13 492.60 201.35 487.27 205.25 C 479.52 210.82 476.11 220.69 476.61 229.97 C 476.11 240.58 476.79 251.99 483.05 261.00 C 488.19 266.15 495.90 268.06 503.00 267.14 C 509.00 266.40 514.13 262.52 517.72 257.81 C 519.71 254.83 520.73 251.35 521.93 248.00 C 523.28 248.00 524.64 248.00 526.00 248.00 C 525.99 255.66 526.00 263.32 526.00 270.98 C 525.27 270.99 523.79 271.02 523.05 271.03 C 522.31 269.33 521.63 267.61 520.97 265.88 C 509.23 271.94 494.91 273.43 482.46 268.65 C 475.29 265.17 469.44 259.19 465.83 252.11 C 460.94 243.05 460.79 232.08 463.28 222.27 C 465.53 213.71 471.97 206.95 479.19 202.18 Z" />
</g>
<g id="#050505ff">
<path fill="#050505" opacity="1.00" d=" M 896.93 198.03 C 907.71 195.90 919.22 197.64 928.85 202.97 C 929.63 201.04 929.13 197.77 931.94 197.66 C 932.06 205.11 931.96 212.56 932.01 220.01 C 931.26 220.00 929.75 219.99 929.00 219.98 C 926.35 213.33 922.77 206.14 915.87 203.09 C 910.18 200.94 903.68 200.80 897.95 202.87 C 890.48 206.84 885.25 214.63 884.12 222.99 C 882.39 233.60 882.74 244.80 886.89 254.83 C 889.13 260.57 894.17 265.13 900.04 266.93 C 906.78 267.90 914.40 267.36 919.88 262.88 C 924.55 258.91 927.52 253.43 930.16 248.00 C 930.87 248.00 932.29 248.00 933.01 248.00 C 933.00 255.67 932.98 263.33 933.02 271.00 C 932.26 271.00 930.74 271.00 929.98 271.00 C 929.31 269.35 928.63 267.72 927.95 266.09 C 916.95 271.32 904.10 273.34 892.28 269.89 C 879.62 264.25 868.63 251.52 869.59 237.01 C 869.38 226.92 871.59 216.26 878.68 208.68 C 883.01 202.81 890.02 199.70 896.93 198.03 Z" />
</g>
<g id="#070707ff">
<path fill="#070707" opacity="1.00" d=" M 681.28 199.06 C 686.42 198.31 691.71 197.22 696.91 198.06 C 702.51 200.11 705.48 205.70 708.80 210.26 C 719.29 224.64 731.31 237.85 741.91 252.16 C 742.43 235.43 742.63 218.70 743.01 201.98 C 739.67 202.01 736.33 202.01 732.99 202.00 C 732.99 201.25 733.00 199.75 733.00 199.00 C 741.33 199.01 749.67 198.99 758.00 199.00 C 758.00 199.75 758.00 201.25 758.00 202.00 C 754.66 202.00 751.33 202.00 748.00 202.00 C 748.00 224.68 748.00 247.36 748.00 270.05 C 745.69 269.93 743.31 270.16 741.07 269.57 C 738.05 268.19 736.46 265.09 734.35 262.70 C 723.03 247.81 711.06 233.43 699.21 218.96 C 697.48 217.38 697.61 214.18 695.08 213.58 C 694.89 231.38 695.04 249.19 695.00 267.00 C 697.99 266.99 700.98 266.99 703.98 267.00 C 704.30 267.98 704.62 268.98 704.95 269.97 C 696.96 270.05 688.97 269.99 680.99 270.00 C 680.99 269.25 681.00 267.75 681.00 267.00 C 684.33 267.01 687.66 267.00 691.00 266.99 C 691.01 245.00 690.99 223.00 691.00 201.00 C 687.56 201.00 684.13 201.00 680.71 201.00 C 680.85 200.52 681.14 199.55 681.28 199.06 Z" />
<path fill="#070707" opacity="1.00" d=" M 639.10 198.98 C 641.04 198.99 642.99 199.00 644.94 199.00 C 653.23 218.81 661.43 238.65 669.61 258.51 C 670.78 261.22 671.35 264.12 671.98 266.99 C 673.98 266.99 675.98 266.99 677.99 266.99 C 678.30 267.98 678.62 268.98 678.95 269.97 C 669.96 270.03 660.98 269.99 652.00 270.00 C 652.00 269.25 652.00 267.75 652.00 267.00 C 654.65 266.99 657.31 267.00 659.97 266.99 C 657.02 259.62 654.00 252.28 650.89 244.98 C 642.60 244.66 634.30 244.38 626.02 243.96 C 623.83 251.81 621.18 259.53 617.91 267.00 C 620.60 267.00 623.30 266.99 626.00 266.99 C 626.00 267.75 626.00 269.26 626.00 270.02 C 619.00 269.96 611.99 270.03 604.99 269.98 C 604.99 269.24 605.00 267.74 605.00 267.00 C 607.64 266.99 610.29 266.99 612.94 267.01 C 620.83 244.02 629.85 221.45 639.10 198.98 M 628.93 239.93 C 635.67 240.08 642.41 239.98 649.15 239.99 C 648.94 234.51 646.15 229.66 644.51 224.55 C 643.07 220.30 641.32 216.07 638.05 212.88 C 634.67 221.77 629.71 230.26 628.93 239.93 Z" />
<path fill="#070707" opacity="1.00" d=" M 971.08 199.00 C 973.02 199.00 974.98 198.99 976.95 198.99 C 983.55 214.77 989.99 230.62 996.53 246.42 C 998.96 253.33 1002.68 259.81 1004.26 267.00 C 1006.15 267.00 1008.05 267.00 1009.97 267.00 C 1010.29 267.99 1010.62 268.97 1010.96 269.97 C 1001.97 270.04 992.98 269.97 984.00 270.00 C 984.00 269.25 984.00 267.75 984.00 267.00 C 986.65 267.00 989.31 267.00 991.98 266.98 C 989.01 259.62 985.99 252.28 982.89 244.98 C 974.59 244.65 966.29 244.40 958.00 243.95 C 955.86 251.81 953.18 259.53 949.89 266.99 C 952.59 266.99 955.29 266.99 958.00 267.00 C 958.00 267.76 958.00 269.27 958.00 270.02 C 950.99 269.96 943.99 270.03 936.99 269.99 C 936.99 269.25 937.00 267.75 937.00 267.00 C 939.64 266.99 942.29 267.00 944.95 267.01 C 952.81 244.03 961.87 221.47 971.08 199.00 M 970.04 212.86 C 966.72 221.78 961.64 230.25 960.96 239.94 C 967.70 240.05 974.44 240.00 981.18 239.98 C 980.93 236.59 979.99 233.33 978.63 230.24 C 976.12 224.29 974.89 217.50 970.04 212.86 Z" />
<path fill="#070707" opacity="1.00" d=" M 933.68 296.88 C 936.18 293.15 940.89 292.84 944.97 292.93 C 945.39 307.92 945.61 322.92 946.00 337.92 C 947.82 337.99 949.64 338.09 951.46 338.27 C 948.51 341.48 943.91 341.80 939.97 342.98 C 939.97 341.66 939.99 340.35 940.03 339.04 C 937.42 341.12 934.44 343.36 930.90 343.04 C 925.73 343.16 920.82 340.01 918.32 335.57 C 916.26 329.60 916.45 322.80 918.94 316.99 C 921.58 312.87 925.74 308.66 931.00 308.79 C 934.10 308.72 937.07 309.80 939.94 310.87 C 939.74 306.25 939.29 301.64 938.99 297.03 C 937.21 297.00 935.44 296.96 933.68 296.88 M 930.30 311.18 C 927.67 311.93 925.62 314.10 924.73 316.64 C 922.84 321.47 923.12 326.87 924.09 331.87 C 925.32 334.98 927.58 337.96 930.80 339.18 C 934.33 339.71 939.41 338.97 940.27 334.77 C 940.58 329.50 940.23 324.20 940.00 318.93 C 939.54 314.42 935.28 309.18 930.30 311.18 Z" />
</g>
<g id="#0b0b0bff">
<path fill="#0b0b0b" opacity="1.00" d=" M 530.99 198.99 C 541.00 199.01 551.01 198.99 561.02 199.00 C 561.02 199.50 561.02 200.50 561.02 201.00 C 558.00 201.00 554.99 201.00 551.98 201.00 C 552.19 215.00 552.22 229.00 552.44 243.00 C 552.70 250.31 554.32 258.10 559.41 263.64 C 564.76 267.80 572.15 267.93 578.51 266.57 C 583.31 265.58 586.78 261.45 588.19 256.91 C 590.60 251.28 590.65 245.06 590.74 239.04 C 590.73 226.69 591.01 214.35 591.00 202.01 C 588.00 202.00 585.00 201.99 582.00 202.00 C 582.00 201.25 582.00 199.75 582.00 198.99 C 589.67 199.00 597.34 199.01 605.01 198.99 C 605.00 199.74 605.00 201.25 605.00 202.00 C 601.99 202.00 598.99 202.00 595.99 202.00 C 596.17 214.99 596.20 228.00 596.31 241.00 C 596.22 249.44 594.69 258.51 588.78 264.94 C 581.74 270.88 572.00 272.00 563.12 271.34 C 554.51 271.23 547.01 265.33 542.95 258.05 C 541.22 254.29 541.04 250.05 540.87 245.98 C 540.80 231.32 541.11 216.66 541.00 202.00 C 537.66 201.99 534.33 201.99 531.00 202.00 C 531.00 201.25 531.00 199.74 530.99 198.99 Z" />
<path fill="#0b0b0b" opacity="1.00" d=" M 849.62 295.81 C 850.34 294.64 851.09 293.50 851.90 292.38 C 852.09 298.31 852.05 304.24 851.88 310.17 C 849.40 305.83 847.69 300.54 842.94 298.10 C 838.76 295.28 830.11 296.81 830.29 302.96 C 830.43 305.70 832.14 308.15 834.31 309.73 C 839.92 313.87 846.43 316.61 852.01 320.80 C 856.03 323.82 855.80 329.55 854.69 333.95 C 853.33 339.60 847.42 342.91 841.93 343.19 C 837.00 343.22 832.15 342.09 827.35 341.11 C 826.41 342.10 825.38 342.98 824.08 343.41 C 823.93 337.84 823.99 332.26 824.03 326.69 C 827.05 326.75 826.77 330.31 827.88 332.34 C 830.00 337.90 836.58 339.72 842.01 339.10 C 844.69 339.32 846.73 337.12 847.83 334.91 C 850.01 331.26 846.71 327.21 843.69 325.29 C 837.46 320.87 829.36 318.35 825.22 311.52 C 821.72 305.30 825.00 295.74 832.32 294.14 C 838.11 292.97 844.06 294.09 849.62 295.81 Z" />
</g>
<g id="#010101ff">
<path fill="#010101" opacity="1.00" d=" M 762.00 199.00 C 781.68 198.99 801.35 199.00 821.03 199.00 C 822.68 206.57 821.89 214.32 821.99 222.00 C 820.64 222.00 819.30 222.00 817.96 222.00 C 816.18 215.71 815.05 208.56 809.83 204.07 C 805.87 201.99 801.31 201.73 796.99 200.94 C 797.01 222.96 797.00 244.98 796.99 267.00 C 800.66 267.00 804.33 267.00 808.00 267.00 C 808.00 267.75 808.00 269.25 808.00 270.00 C 796.99 269.99 785.99 270.02 774.98 269.99 C 774.99 269.24 775.00 267.74 775.00 266.99 C 778.67 267.00 782.33 267.00 786.01 267.00 C 785.98 245.32 786.00 223.64 786.00 201.95 C 780.66 201.71 775.42 202.92 771.09 206.11 C 768.40 211.15 766.66 216.59 764.99 222.03 C 764.24 222.02 762.75 221.99 762.00 221.98 C 762.02 214.32 761.98 206.66 762.00 199.00 Z" />
</g>
<g id="#090909ff">
<path fill="#090909" opacity="1.00" d=" M 829.00 199.00 C 839.33 199.00 849.67 199.00 860.00 199.00 C 860.00 199.75 860.00 201.25 860.00 202.00 C 857.00 202.00 853.99 202.00 851.00 202.00 C 851.01 223.67 851.01 245.34 851.00 267.00 C 853.66 267.00 856.33 266.99 859.00 267.00 C 859.30 267.99 859.60 268.98 859.92 269.98 C 849.94 270.04 839.97 269.96 830.00 270.02 C 830.00 269.27 830.01 267.75 830.01 267.00 C 833.00 266.99 835.99 267.00 839.00 267.00 C 839.01 245.33 838.99 223.67 839.01 202.00 C 835.66 202.01 832.32 202.01 828.99 202.01 C 828.99 201.26 829.00 199.75 829.00 199.00 Z" />
</g>
<g id="#f4f4f4ff">
</g>
<g id="#161616ff">
<path fill="#161616" opacity="1.00" d=" M 959.15 292.05 C 960.41 292.33 961.67 292.61 962.97 292.89 C 963.30 294.54 963.64 296.19 964.01 297.86 C 962.35 298.27 960.69 298.66 959.05 299.05 C 958.33 297.66 957.61 296.27 956.92 294.90 C 957.65 293.94 958.39 292.99 959.15 292.05 Z" />
</g>
<g id="#121210ff">
<path fill="#121210" opacity="1.00" d=" M 867.92 300.84 C 868.42 299.53 869.67 298.98 870.94 298.63 C 871.05 302.42 870.98 306.21 871.00 310.00 C 873.32 309.99 875.65 310.00 877.99 310.01 C 877.99 310.76 878.00 312.26 878.00 313.01 C 875.66 313.00 873.34 313.00 871.01 312.99 C 871.34 321.00 871.61 329.02 872.02 337.03 C 874.35 336.65 876.69 336.30 879.04 335.96 C 877.43 339.16 875.21 342.94 870.99 342.27 C 866.80 342.95 864.80 338.42 864.70 334.98 C 864.71 327.32 864.88 319.66 865.03 312.01 C 863.32 312.00 861.63 312.00 859.95 312.00 C 863.09 308.64 865.83 304.94 867.92 300.84 Z" />
</g>
<g id="#0e0e0eff">
<path fill="#0e0e0e" opacity="1.00" d=" M 983.37 309.67 C 987.29 309.09 992.00 307.78 995.45 310.45 C 999.35 312.82 1002.46 316.51 1003.86 320.88 C 1005.13 327.00 1003.16 333.38 999.44 338.28 C 996.01 341.85 990.99 343.22 986.18 343.36 C 980.12 343.06 975.10 338.31 973.70 332.53 C 970.54 323.95 974.69 313.03 983.37 309.67 M 980.60 315.82 C 978.74 319.61 979.84 323.91 979.83 327.94 C 979.71 332.79 982.88 336.84 986.07 340.17 C 988.89 340.43 992.48 341.11 994.45 338.46 C 998.62 334.05 997.49 327.53 996.93 322.06 C 996.31 316.80 992.91 311.93 987.75 310.30 C 984.79 311.15 981.83 312.85 980.60 315.82 Z" />
</g>
<g id="#040404ff">
<path fill="#040404" opacity="1.00" d=" M 878.37 310.12 C 882.23 309.88 886.11 310.03 889.98 310.00 C 890.23 318.22 890.35 326.45 890.67 334.67 C 891.98 336.26 893.33 338.78 895.84 337.91 C 898.89 337.09 902.80 335.55 903.42 332.06 C 903.44 325.73 903.13 319.41 902.99 313.09 C 901.05 312.22 899.00 311.51 897.38 310.11 C 901.25 309.88 905.13 310.03 909.02 310.00 C 909.34 319.36 909.63 328.72 910.04 338.07 C 911.33 338.36 912.62 338.69 913.92 339.03 C 910.73 340.61 907.63 342.46 904.15 343.30 C 903.70 341.17 903.33 339.03 902.99 336.88 C 900.12 339.70 897.13 343.02 892.89 343.50 C 888.93 343.17 885.15 340.34 884.75 336.20 C 883.96 328.51 885.08 320.76 885.01 313.05 C 882.72 312.25 880.24 311.76 878.37 310.12 Z" />
</g>
<g id="#f8f8f8ff">
</g>
</svg>
